<svg width="339" height="57" viewBox="0 0 339 57" fill="none" xmlns="http://www.w3.org/2000/svg">
<path d="M244 50.4725L255.713 10.5519C256 9.57228 257.398 9.60239 257.643 10.5935L267.5 50.4725" stroke="white" stroke-width="10" stroke-linecap="round"/>
<path d="M248.5 37H262.5" stroke="white" stroke-width="10" stroke-linecap="round"/>
<path d="M279.5 49V27.5M279.5 27.5V5.29752C279.5 5.1332 279.633 5 279.798 5H289.547C292.669 5 295.612 6.45476 297.509 8.93483V8.93483C299.671 11.7624 300.172 15.5246 298.824 18.8191L298.706 19.1074C297.333 22.4642 294.334 24.8822 290.762 25.5125L279.5 27.5ZM279.5 27.5L293.037 36.2592C295.255 37.6944 296.815 39.949 297.376 42.5306L299 50" stroke="white" stroke-width="10" stroke-linecap="round"/>
<path d="M310 6H322M334 6H322M322 6L320 49" stroke="white" stroke-width="10" stroke-linecap="round"/>
<path d="M206 10.5L198.595 8.82784C193.88 7.76328 189.066 10.1547 187.066 14.5547V14.5547C184.796 19.5477 186.883 25.4415 191.789 27.8943L196.632 30.3161C198.189 31.0947 199.906 31.5 201.647 31.5H203.177C206.713 31.5 209.912 33.5973 211.322 36.8396V36.8396C212.906 40.484 211.877 44.7373 208.801 47.2537L207.086 48.657C204.486 50.7842 201.103 51.7036 197.784 51.185L187 49.5" stroke="white" stroke-width="10" stroke-linecap="round"/>
<path d="M218 7H229.75M241.5 7H229.75M229.75 7V50.5" stroke="white" stroke-width="10" stroke-linecap="round"/>
<path d="M31.5 6.5L23.8678 5.5045C21.329 5.17334 18.7476 5.47711 16.355 6.38859V6.38859C12.0162 8.04143 8.64851 11.5545 7.1803 15.9591L6.52036 17.9389C5.84454 19.9664 5.5 22.0895 5.5 24.2267V25.8315C5.5 29.2108 6.43772 32.5238 8.20881 35.4018L8.6258 36.0794C9.20597 37.0222 9.91013 37.8828 10.7194 38.6381V38.6381C14.4954 42.1624 20.0643 42.9678 24.6841 40.6579L33 36.5" stroke="white" stroke-width="10" stroke-linecap="round"/>
<path d="M23.5 29L34.7791 27.7468C35.9639 27.6151 37 28.5425 37 29.7345V44" stroke="white" stroke-width="10" stroke-linecap="round"/>
<path d="M49 44L52.1488 32.5M73.5 44L69.9405 32.5M52.1488 32.5L58.6886 8.61564C59.2168 6.68649 61.9367 6.64173 62.5281 8.55246L69.9405 32.5M52.1488 32.5H69.9405" stroke="white" stroke-width="10" stroke-linecap="round"/>
<path d="M86.5 44.5L92.6422 9.84064C92.8323 8.76794 94.3573 8.72937 94.6014 9.7911L102.572 44.462C102.807 45.4851 104.258 45.5008 104.516 44.4831L113.286 9.802C113.553 8.74425 115.08 8.8183 115.244 9.89698L120.5 44.5M156 44.5L135.343 48.0926C134.119 48.3053 133 47.3637 133 46.1222V26.75M150.5 5H135C133.895 5 133 5.89543 133 7V26.75M133 26.75L151.5 24.5" stroke="white" stroke-width="10" stroke-linecap="round"/>
</svg>
