<svg width="150" height="150" viewBox="0 0 150 150" fill="none" xmlns="http://www.w3.org/2000/svg">
<circle cx="75" cy="75" r="75" fill="#2D4732"/>
<circle cx="75" cy="75" r="65" fill="#BDD77F"/>
<path d="M73.1573 30.7867C74.3036 29.7378 76.0616 29.7377 77.208 30.7867L115.385 65.7203C117.404 67.5683 116.097 70.9332 113.359 70.9332H104.009C104.12 71.2463 104.183 71.5822 104.183 71.9332V113.933C104.183 115.59 102.839 116.933 101.183 116.933H85V98.9996H84.9756C84.9901 98.8343 85 98.6677 85 98.4996C85 94.3575 80.5229 90.9996 75 90.9996C69.4772 90.9996 65 94.3575 65 98.4996C65 98.6677 65.0099 98.8343 65.0244 98.9996H65V116.933H49.1826C47.5259 116.933 46.1826 115.59 46.1826 113.933V71.9332C46.1826 71.5821 46.2466 71.2464 46.3574 70.9332H37.0059C34.2688 70.9331 32.9615 67.5683 34.9805 65.7203L73.1573 30.7867Z" fill="#2D4732"/>
</svg>
